<svg xmlns="http://www.w3.org/2000/svg" width="794" height="149" viewBox="0 0 794 149">
  <path fill="#090B1F" d="M39,113 L0,113 L0,5 L39,5 L39,42.5 L67.5,42.5 L67.5,5 L106.5,5 L106.5,113 L67.5,113 L67.5,72.5 L39,72.5 L39,113 Z M155.25,66.5 L174.15,66.5 C174.15,61.25 170.25,56 164.7,56 C159.45,56 156.45,60.05 155.25,66.5 Z M120.15,74 C120.15,48.8 138.75,32 165.15,32 C191.85,32 208.65,48.95 208.65,74.45 C208.65,76.85 208.5,81.65 208.2,83 L155.7,83 C157.5,88.7 160.95,92 166.65,92 C171.6,92 174.45,89.45 175.65,86 L205.65,89.75 C202.65,104.9 185.55,116 164.4,116 C138.15,116 120.15,99.2 120.15,74 Z M220.8,0.5 L255.3,0.5 L255.3,113 L220.8,113 L220.8,0.5 Z M270.3,0.5 L304.8,0.5 L304.8,113 L270.3,113 L270.3,0.5 Z M361.8,32 C388.8,32 406.8,48.8 406.8,74 C406.8,99.2 388.8,116 361.8,116 C334.8,116 316.8,99.2 316.8,74 C316.8,48.8 334.8,32 361.8,32 Z M361.8,86 C368.1,86 372.3,81.2 372.3,74 C372.3,66.8 368.1,62 361.8,62 C355.5,62 351.3,66.8 351.3,74 C351.3,81.2 355.5,86 361.8,86 Z M473.7,146 L473.7,122.75 C475.05,123.2 478.95,123.5 481.2,123.5 C488.85,123.5 493.95,123.5 496.35,114.8 L456.45,35 L493.95,35 L508.95,71.45 L519.45,35 L554.7,35 L525.45,117.5 C516.9,141.35 505.95,149 491.7,149 C486,149 478.5,147.8 473.7,146 Z M738.75,113 L705.75,113 L705.75,101.3 C700.05,110.15 692.1,116 681.75,116 C667.05,116 656.25,103.4 656.25,86 L656.25,35 L690.75,35 L690.75,77 C690.75,82.4 693.45,86 697.5,86 C701.55,86 704.25,82.4 704.25,77 L704.25,35 L738.75,35 L738.75,113 Z M774.3,116 C763.5,116 755.55,108.5 755.55,98 C755.55,87.5 763.5,80 774.3,80 C785.25,80 793.05,87.5 793.05,98 C793.05,108.5 785.25,116 774.3,116 Z M791.55,5 L791.55,35 L782.55,74 L766.05,74 L757.05,35 L757.05,5 L791.55,5 Z M600.6,32 C627.6,32 645.6,48.8 645.6,74 C645.6,99.2 627.6,116 600.6,116 C573.6,116 555.6,99.2 555.6,74 C555.6,48.8 573.6,32 600.6,32 Z M600.6,86 C606.9,86 611.1,81.2 611.1,74 C611.1,66.8 606.9,62 600.6,62 C594.3,62 590.1,66.8 590.1,74 C590.1,81.2 594.3,86 600.6,86 Z"/>
</svg>
