<svg xmlns="http://www.w3.org/2000/svg" width="267" height="120" viewBox="0 0 267 120">
  <defs>
    <linearGradient id="helloyou_line2-a" x1="0%" x2="60.426%" y1="52.453%" y2="51.241%">
      <stop offset="0%" stop-color="#FF39C4"/>
      <stop offset="100%" stop-color="#5F7CF1"/>
    </linearGradient>
  </defs>
  <path fill="url(#helloyou_line2-a)" d="M71.7603464,27.2590398 C69.4100533,27.839895 65.2873555,30.3543148 59.7082906,34.7688851 C47.9794155,44.0496418 30.2345558,61.3092112 6.54964648,86.4943358 C5.22539447,87.9024666 3.01036049,87.9704639 1.60222962,86.6462119 C0.194098747,85.3219598 0.126101501,83.1069259 1.45035352,81.698795 C25.3534375,56.2816764 43.2995728,38.826336 55.3646943,29.2795161 C61.6826278,24.2802982 66.4826788,21.3527629 70.0808848,20.4634965 C75.3223123,19.1681216 78.88199,22.1622506 78.88199,27.6138355 C78.88199,39.9427615 79.9605965,63.5739844 81.5216019,80.0035542 C82.3526453,88.7502791 83.3074941,95.5925 84.3387802,99.9472362 C89.6493052,88.6787548 104.539319,66.3077188 118.902302,48.0438452 C127.122552,37.5910308 134.37735,29.4912136 139.760551,24.9528936 C143.112129,22.1273373 145.824575,20.5499498 148.319021,20.3821338 C152.381442,20.1088309 154.508664,23.2171773 154.508664,27.6138355 C154.508664,39.0365542 157.614706,64.8535116 161.548359,84.256805 C163.780452,95.2669148 166.168553,103.833407 168.48109,108.820912 C169.202222,110.376194 169.877975,111.477147 170.368663,112.082002 C170.408452,112.026025 170.450608,111.965001 170.494899,111.898714 C172.315596,109.173827 172.781071,108.345345 182.166051,91.357287 C189.707334,77.7065654 195.190883,68.1031443 201.267566,58.163818 C209.975524,43.9206454 218.112166,32.0912004 225.852717,22.8015516 C240.395478,5.3483833 253.095947,-2.68142874 264.252581,1.59451623 C266.05755,2.28629748 266.959968,4.31031381 266.268186,6.11528324 C265.576405,7.92025268 263.552389,8.82267001 261.747419,8.13088876 C254.481317,5.34604745 243.973096,11.9898207 231.2305,27.2825613 C223.742783,36.2687765 215.78517,47.8379422 207.23983,61.8151273 C201.228905,71.6468978 195.788754,81.1743156 188.293224,94.7422174 C178.659991,112.179646 178.311234,112.800385 176.3152,115.787684 C174.105145,119.095292 170.946538,120.474626 167.720027,118.826349 C165.513869,117.699323 163.783571,115.330616 162.130526,111.765454 C159.530781,106.158521 157.020762,97.1546917 154.687921,85.6476298 C150.703221,65.992537 147.56347,40.0120335 147.509374,27.9274238 C146.692847,28.4105547 145.577949,29.2041832 144.272466,30.3047738 C139.33993,34.4631598 132.353074,42.2638248 124.404657,52.3709793 C109.2691,71.6172535 93.4198436,95.7156134 89.7521631,105.032004 C89.1414766,106.583228 88.5005499,107.768091 87.732975,108.647907 C86.4756511,110.089086 84.7330582,110.842062 82.8077575,110.275067 C80.3832123,109.561046 79.2158359,107.4728 78.1414513,103.878218 C76.7448023,99.2054323 75.5608262,91.2731763 74.552985,80.6656561 C72.9706684,64.0117852 71.88199,40.159898 71.88199,27.6138355 C71.88199,27.4739809 71.8779502,27.3469352 71.8707049,27.2329582 C71.8352785,27.2409326 71.7984873,27.2496136 71.7603464,27.2590398 Z"/>
</svg>
